{
    "asset" : {
        "copyright" : "TheFamousRat",
        "generator" : "Khronos glTF Blender I/O v1.1.46",
        "version" : "2.0"
    },
    "scene" : 0,
    "scenes" : [
        {
            "name" : "Scene",
            "nodes" : [
                16
            ]
        }
    ],
    "nodes" : [
        {
            "name" : "Bone_L.001",
            "rotation" : [
                -0.36439940333366394,
                0.03149264678359032,
                -0.0070407879538834095,
                0.9306834936141968
            ],
            "scale" : [
                1,
                1,
                0.9999998807907104
            ],
            "translation" : [
                -2.421438694000244e-08,
                0.8944145441055298,
                7.450580596923828e-09
            ]
        },
        {
            "children" : [
                0
            ],
            "name" : "Bone_L",
            "rotation" : [
                0.4205804467201233,
                -0.05541367083787918,
                -0.1306971162557602,
                0.8960801959037781
            ],
            "scale" : [
                1,
                1,
                0.9999999403953552
            ],
            "translation" : [
                0.3977759778499603,
                0.7199551463127136,
                3.807416305789957e-06
            ]
        },
        {
            "name" : "Bone_R.001",
            "rotation" : [
                -0.36439943313598633,
                -0.031492624431848526,
                0.0070407516323029995,
                0.9306834936141968
            ],
            "scale" : [
                1,
                0.9999999403953552,
                0.9999999403953552
            ],
            "translation" : [
                5.587935447692871e-08,
                0.8944145441055298,
                2.2351741790771484e-08
            ]
        },
        {
            "children" : [
                2
            ],
            "name" : "Bone_R",
            "rotation" : [
                0.4205791652202606,
                0.055404916405677795,
                0.13070127367973328,
                0.896080732345581
            ],
            "scale" : [
                1,
                1,
                0.9999999403953552
            ],
            "translation" : [
                -0.3977759778499603,
                0.7199551463127136,
                -3.969233603129396e-06
            ]
        },
        {
            "name" : "Bone.001_L.002",
            "rotation" : [
                0.0005407253629527986,
                -7.390668542939238e-06,
                0.003870804328471422,
                0.9999923706054688
            ],
            "scale" : [
                0.9999999403953552,
                0.9999998807907104,
                0.9999998807907104
            ],
            "translation" : [
                -5.3551048040390015e-09,
                0.27181366086006165,
                1.862645149230957e-09
            ]
        },
        {
            "children" : [
                4
            ],
            "name" : "Bone.001_L.001",
            "rotation" : [
                -0.015120471827685833,
                -0.009423760697245598,
                -0.7299792766571045,
                0.6832370162010193
            ],
            "scale" : [
                0.9999998807907104,
                1,
                0.9999999403953552
            ],
            "translation" : [
                0.5785834789276123,
                0.6526438593864441,
                -0.022731391713023186
            ]
        },
        {
            "name" : "Bone.001_R.002",
            "rotation" : [
                0.000540721055585891,
                7.4056433732039295e-06,
                -0.0038707491476088762,
                0.9999923706054688
            ],
            "scale" : [
                0.9999998807907104,
                0.9999998807907104,
                0.9999998807907104
            ],
            "translation" : [
                -3.026798367500305e-09,
                0.27181363105773926,
                0
            ]
        },
        {
            "children" : [
                6
            ],
            "name" : "Bone.001_R.001",
            "rotation" : [
                -0.015127593651413918,
                0.009417081251740456,
                0.7299790978431702,
                0.6832371950149536
            ],
            "scale" : [
                0.9999998807907104,
                0.9999999403953552,
                0.9999999403953552
            ],
            "translation" : [
                -0.5785830020904541,
                0.6526438593864441,
                -0.022742697969079018
            ]
        },
        {
            "name" : "Bone.003",
            "rotation" : [
                0.05453657731413841,
                -1.790674969415207e-10,
                5.33073318820243e-07,
                0.9985118508338928
            ],
            "scale" : [
                1,
                0.9999999403953552,
                1
            ],
            "translation" : [
                2.0116227477176563e-13,
                0.3831770122051239,
                -1.4901161193847656e-08
            ]
        },
        {
            "children" : [
                8
            ],
            "name" : "Bone.002",
            "rotation" : [
                0.1870773583650589,
                -1.5083964632900404e-10,
                1.828669496717339e-06,
                0.9823452830314636
            ],
            "translation" : [
                8.578196746683586e-14,
                0.870360791683197,
                4.656612873077393e-10
            ]
        },
        {
            "children" : [
                5,
                7,
                9
            ],
            "name" : "Bone.001",
            "rotation" : [
                -0.7486090660095215,
                3.6540328540723976e-09,
                -7.313595233426895e-06,
                0.6630116701126099
            ],
            "translation" : [
                8.507250893324825e-13,
                0.7199551463127136,
                -8.09086486697197e-08
            ]
        },
        {
            "children" : [
                1,
                3,
                10
            ],
            "name" : "Bone",
            "rotation" : [
                0.7131178975105286,
                3.4244819744344568e-06,
                3.4834433790820185e-06,
                0.7010441422462463
            ],
            "scale" : [
                1,
                0.9999999403953552,
                0.9994324445724487
            ],
            "translation" : [
                -1.498488898663339e-16,
                -0.6748594045639038,
                -0.652364194393158
            ]
        },
        {
            "mesh" : 0,
            "name" : "Eyes.001",
            "skin" : 0
        },
        {
            "mesh" : 1,
            "name" : "Scarf.001",
            "skin" : 0
        },
        {
            "mesh" : 2,
            "name" : "Teeth.001",
            "skin" : 0
        },
        {
            "children" : [
                12,
                13,
                14
            ],
            "mesh" : 3,
            "name" : "Theodore.001",
            "skin" : 0
        },
        {
            "children" : [
                15,
                11
            ],
            "name" : "Armature.002",
            "rotation" : [
                0,
                -0.018575401976704597,
                0,
                -0.9998274445533752
            ],
            "translation" : [
                -1.5158576965332031,
                0,
                1.0331296920776367
            ]
        }
    ],
    "materials" : [
        {
            "doubleSided" : true,
            "emissiveFactor" : [
                0,
                0,
                0
            ],
            "name" : "Eyes_baked",
            "pbrMetallicRoughness" : {
                "baseColorTexture" : {
                    "index" : 0,
                    "texCoord" : 0
                },
                "metallicFactor" : 0,
                "roughnessFactor" : 0.20000000298023224
            }
        },
        {
            "doubleSided" : true,
            "emissiveFactor" : [
                0,
                0,
                0
            ],
            "name" : "Scarf_baked",
            "pbrMetallicRoughness" : {
                "baseColorTexture" : {
                    "index" : 1,
                    "texCoord" : 0
                },
                "metallicFactor" : 0,
                "roughnessFactor" : 0.8999999761581421
            }
        },
        {
            "doubleSided" : true,
            "emissiveFactor" : [
                0,
                0,
                0
            ],
            "name" : "Teeth_baked",
            "pbrMetallicRoughness" : {
                "baseColorTexture" : {
                    "index" : 2,
                    "texCoord" : 0
                },
                "metallicFactor" : 0,
                "roughnessFactor" : 0.5
            }
        },
        {
            "doubleSided" : true,
            "emissiveFactor" : [
                0,
                0,
                0
            ],
            "name" : "Theodore_baked",
            "pbrMetallicRoughness" : {
                "baseColorTexture" : {
                    "index" : 3,
                    "texCoord" : 0
                },
                "metallicFactor" : 0,
                "roughnessFactor" : 0.8999999761581421
            }
        }
    ],
    "meshes" : [
        {
            "name" : "Theodore.016",
            "primitives" : [
                {
                    "attributes" : {
                        "POSITION" : 0,
                        "NORMAL" : 1,
                        "TEXCOORD_0" : 2,
                        "JOINTS_0" : 3,
                        "WEIGHTS_0" : 4
                    },
                    "indices" : 5,
                    "material" : 0
                }
            ]
        },
        {
            "name" : "Theodore.014",
            "primitives" : [
                {
                    "attributes" : {
                        "POSITION" : 7,
                        "NORMAL" : 8,
                        "TEXCOORD_0" : 9,
                        "JOINTS_0" : 10,
                        "WEIGHTS_0" : 11
                    },
                    "indices" : 12,
                    "material" : 1
                }
            ]
        },
        {
            "name" : "Theodore.015",
            "primitives" : [
                {
                    "attributes" : {
                        "POSITION" : 13,
                        "NORMAL" : 14,
                        "TEXCOORD_0" : 15,
                        "JOINTS_0" : 16,
                        "WEIGHTS_0" : 17
                    },
                    "indices" : 18,
                    "material" : 2
                }
            ]
        },
        {
            "name" : "Theodore",
            "primitives" : [
                {
                    "attributes" : {
                        "POSITION" : 19,
                        "NORMAL" : 20,
                        "TEXCOORD_0" : 21,
                        "JOINTS_0" : 22,
                        "WEIGHTS_0" : 23
                    },
                    "indices" : 24,
                    "material" : 3
                }
            ]
        }
    ],
    "textures" : [
        {
            "source" : 0
        },
        {
            "source" : 1
        },
        {
            "source" : 2
        },
        {
            "source" : 3
        }
    ],
    "images" : [
        {
            "bufferView" : 6,
            "mimeType" : "image/png",
            "name" : "EyesDiffuse"
        },
        {
            "bufferView" : 14,
            "mimeType" : "image/png",
            "name" : "ScarfDiffuse"
        },
        {
            "bufferView" : 21,
            "mimeType" : "image/png",
            "name" : "TeethDiffuse"
        },
        {
            "bufferView" : 28,
            "mimeType" : "image/png",
            "name" : "TheodoreDiffuse"
        }
    ],
    "skins" : [
        {
            "inverseBindMatrices" : 6,
            "joints" : [
                11,
                1,
                0,
                3,
                2,
                10,
                5,
                4,
                7,
                6,
                9,
                8
            ],
            "name" : "Armature.002"
        }
    ],
    "accessors" : [
        {
            "bufferView" : 0,
            "componentType" : 5126,
            "count" : 256,
            "max" : [
                -1.026983380317688,
                1.2013232707977295,
                1.8286442756652832
            ],
            "min" : [
                -1.9393216371536255,
                1.0637030601501465,
                1.6625910997390747
            ],
            "type" : "VEC3"
        },
        {
            "bufferView" : 1,
            "componentType" : 5126,
            "count" : 256,
            "type" : "VEC3"
        },
        {
            "bufferView" : 2,
            "componentType" : 5126,
            "count" : 256,
            "type" : "VEC2"
        },
        {
            "bufferView" : 3,
            "componentType" : 5123,
            "count" : 256,
            "type" : "VEC4"
        },
        {
            "bufferView" : 4,
            "componentType" : 5126,
            "count" : 256,
            "type" : "VEC4"
        },
        {
            "bufferView" : 5,
            "componentType" : 5123,
            "count" : 372,
            "type" : "SCALAR"
        },
        {
            "bufferView" : 7,
            "componentType" : 5126,
            "count" : 12,
            "type" : "MAT4"
        },
        {
            "bufferView" : 8,
            "componentType" : 5126,
            "count" : 2463,
            "max" : [
                -0.961441159248352,
                0.703040599822998,
                1.8435044288635254
            ],
            "min" : [
                -2.050119638442993,
                -1.0242081880569458,
                0.428480327129364
            ],
            "type" : "VEC3"
        },
        {
            "bufferView" : 9,
            "componentType" : 5126,
            "count" : 2463,
            "type" : "VEC3"
        },
        {
            "bufferView" : 10,
            "componentType" : 5126,
            "count" : 2463,
            "type" : "VEC2"
        },
        {
            "bufferView" : 11,
            "componentType" : 5123,
            "count" : 2463,
            "type" : "VEC4"
        },
        {
            "bufferView" : 12,
            "componentType" : 5126,
            "count" : 2463,
            "type" : "VEC4"
        },
        {
            "bufferView" : 13,
            "componentType" : 5123,
            "count" : 3060,
            "type" : "SCALAR"
        },
        {
            "bufferView" : 15,
            "componentType" : 5126,
            "count" : 120,
            "max" : [
                -1.377091646194458,
                0.5481743812561035,
                2.1164417266845703
            ],
            "min" : [
                -1.5792137384414673,
                0.4291996359825134,
                2.027402877807617
            ],
            "type" : "VEC3"
        },
        {
            "bufferView" : 16,
            "componentType" : 5126,
            "count" : 120,
            "type" : "VEC3"
        },
        {
            "bufferView" : 17,
            "componentType" : 5126,
            "count" : 120,
            "type" : "VEC2"
        },
        {
            "bufferView" : 18,
            "componentType" : 5123,
            "count" : 120,
            "type" : "VEC4"
        },
        {
            "bufferView" : 19,
            "componentType" : 5126,
            "count" : 120,
            "type" : "VEC4"
        },
        {
            "bufferView" : 20,
            "componentType" : 5123,
            "count" : 180,
            "type" : "SCALAR"
        },
        {
            "bufferView" : 22,
            "componentType" : 5126,
            "count" : 3312,
            "max" : [
                -0.4337967336177826,
                1.5347141027450562,
                2.1453239917755127
            ],
            "min" : [
                -2.6012918949127197,
                -1.7814034223556519,
                -0.6448808908462524
            ],
            "type" : "VEC3"
        },
        {
            "bufferView" : 23,
            "componentType" : 5126,
            "count" : 3312,
            "type" : "VEC3"
        },
        {
            "bufferView" : 24,
            "componentType" : 5126,
            "count" : 3312,
            "type" : "VEC2"
        },
        {
            "bufferView" : 25,
            "componentType" : 5123,
            "count" : 3312,
            "type" : "VEC4"
        },
        {
            "bufferView" : 26,
            "componentType" : 5126,
            "count" : 3312,
            "type" : "VEC4"
        },
        {
            "bufferView" : 27,
            "componentType" : 5123,
            "count" : 3312,
            "type" : "SCALAR"
        }
    ],
    "bufferViews" : [
        {
            "buffer" : 0,
            "byteLength" : 3072,
            "byteOffset" : 0
        },
        {
            "buffer" : 0,
            "byteLength" : 3072,
            "byteOffset" : 3072
        },
        {
            "buffer" : 0,
            "byteLength" : 2048,
            "byteOffset" : 6144
        },
        {
            "buffer" : 0,
            "byteLength" : 2048,
            "byteOffset" : 8192
        },
        {
            "buffer" : 0,
            "byteLength" : 4096,
            "byteOffset" : 10240
        },
        {
            "buffer" : 0,
            "byteLength" : 744,
            "byteOffset" : 14336
        },
        {
            "buffer" : 0,
            "byteLength" : 1311,
            "byteOffset" : 15080
        },
        {
            "buffer" : 0,
            "byteLength" : 768,
            "byteOffset" : 16392
        },
        {
            "buffer" : 0,
            "byteLength" : 29556,
            "byteOffset" : 17160
        },
        {
            "buffer" : 0,
            "byteLength" : 29556,
            "byteOffset" : 46716
        },
        {
            "buffer" : 0,
            "byteLength" : 19704,
            "byteOffset" : 76272
        },
        {
            "buffer" : 0,
            "byteLength" : 19704,
            "byteOffset" : 95976
        },
        {
            "buffer" : 0,
            "byteLength" : 39408,
            "byteOffset" : 115680
        },
        {
            "buffer" : 0,
            "byteLength" : 6120,
            "byteOffset" : 155088
        },
        {
            "buffer" : 0,
            "byteLength" : 1282,
            "byteOffset" : 161208
        },
        {
            "buffer" : 0,
            "byteLength" : 1440,
            "byteOffset" : 162492
        },
        {
            "buffer" : 0,
            "byteLength" : 1440,
            "byteOffset" : 163932
        },
        {
            "buffer" : 0,
            "byteLength" : 960,
            "byteOffset" : 165372
        },
        {
            "buffer" : 0,
            "byteLength" : 960,
            "byteOffset" : 166332
        },
        {
            "buffer" : 0,
            "byteLength" : 1920,
            "byteOffset" : 167292
        },
        {
            "buffer" : 0,
            "byteLength" : 360,
            "byteOffset" : 169212
        },
        {
            "buffer" : 0,
            "byteLength" : 2715,
            "byteOffset" : 169572
        },
        {
            "buffer" : 0,
            "byteLength" : 39744,
            "byteOffset" : 172288
        },
        {
            "buffer" : 0,
            "byteLength" : 39744,
            "byteOffset" : 212032
        },
        {
            "buffer" : 0,
            "byteLength" : 26496,
            "byteOffset" : 251776
        },
        {
            "buffer" : 0,
            "byteLength" : 26496,
            "byteOffset" : 278272
        },
        {
            "buffer" : 0,
            "byteLength" : 52992,
            "byteOffset" : 304768
        },
        {
            "buffer" : 0,
            "byteLength" : 6624,
            "byteOffset" : 357760
        },
        {
            "buffer" : 0,
            "byteLength" : 19145,
            "byteOffset" : 364384
        }
    ],
    "buffers" : [
        {
            "byteLength" : 383532,
            "uri" : "data:application/octet-stream;base64,"
        }
    ]
}
